<svg width="68" height="68" viewBox="0 0 68 68" fill="none" xmlns="http://www.w3.org/2000/svg">
<g clip-path="url(#clip0_0_89)">
<path d="M40.4022 67.3173C40.4022 67.3173 40.1974 67.3173 40.095 67.2832L28.9682 63.6671L17.8414 67.2832C17.3635 67.4197 16.8515 67.215 16.6126 66.7715L11.2881 56.3326L0.809769 51.0108C0.36606 50.772 0.161272 50.2603 0.297798 49.7827L3.91573 38.6615L0.297798 27.5404C0.161272 27.0628 0.36606 26.551 0.809769 26.3122L11.254 20.9905L16.5785 10.5516C16.8174 10.1081 17.3294 9.90339 17.8072 10.0398L28.9341 13.6559L40.0609 10.0398C40.5388 9.90339 41.0507 10.1081 41.2896 10.5516L46.6142 20.9905L57.0584 26.3122C57.5021 26.551 57.7069 27.0628 57.5703 27.5404L53.9524 38.6615L57.5703 49.7827C57.741 50.2603 57.5021 50.772 57.0584 51.0108L46.6142 56.3326L41.2896 66.7715C41.119 67.1127 40.7435 67.3173 40.4022 67.3173ZM2.51634 49.6121L12.4827 54.6951C12.6875 54.7975 12.824 54.9339 12.9264 55.1386L18.012 65.0999L28.6269 61.6544C28.8317 61.5862 29.0365 61.5862 29.2413 61.6544L39.8561 65.0999L44.9417 55.1386C45.0441 54.9339 45.1806 54.7975 45.3854 54.6951L55.3518 49.6121L51.9045 39.0027C51.8363 38.798 51.8363 38.5933 51.9045 38.3886L55.3518 27.7792L45.3854 22.6962C45.1806 22.5938 45.0441 22.4574 44.9417 22.2527L39.8561 12.2914L29.2413 15.7369C29.0365 15.8051 28.8317 15.8051 28.6269 15.7369L18.012 12.2914L12.9264 22.2527C12.824 22.4574 12.6875 22.5938 12.4827 22.6962L2.51634 27.7792L5.96361 38.3886C6.03188 38.5933 6.03188 38.798 5.96361 39.0027L2.51634 49.6121Z" fill="#080808"/>
<path d="M38.525 34.7042C37.0915 34.7042 35.658 34.1584 34.5658 33.0668C32.3814 30.8835 32.3814 27.3015 34.5658 25.1182C36.7502 22.9349 40.334 22.9349 42.5184 25.1182C44.7028 27.3015 44.7028 30.8835 42.5184 33.0668C41.4262 34.1584 39.9927 34.7042 38.5591 34.7042H38.525ZM38.525 25.4934C37.6035 25.4934 36.6819 25.8346 35.9993 26.551C34.5999 27.9497 34.5999 30.2353 35.9993 31.634C37.3987 33.0326 39.6855 33.0326 41.0849 31.634C42.4843 30.2353 42.4843 27.9497 41.0849 26.551C40.4022 25.8346 39.4807 25.4934 38.5591 25.4934H38.525Z" fill="#080808"/>
<path d="M41.6992 31.1905C40.0951 31.1905 38.7639 30.7471 37.8083 29.7919C37.3987 29.3825 37.3987 28.7684 37.8083 28.3591C38.2178 27.9497 38.8322 27.9497 39.2418 28.3591C41.5627 30.6788 49.3105 28.0862 56.7171 20.6493C60.1643 17.2038 62.8607 13.383 64.2601 9.93748C65.523 6.79899 65.5912 4.34278 64.4308 3.1829C63.2703 2.02302 60.7787 2.05714 57.6727 3.35347C54.2255 4.75215 50.4028 7.44716 46.9555 10.8927C46.7166 11.1315 46.4435 11.4044 46.2046 11.6773C45.8291 12.0867 45.1806 12.0867 44.7711 11.7114C44.3615 11.3362 44.3615 10.688 44.7369 10.2786C45.01 10.0057 45.2489 9.7328 45.522 9.45989C49.174 5.80968 53.2015 2.97822 56.9219 1.4772C60.9152 -0.126163 64.0895 -0.0238204 65.8984 1.75011C69.4481 5.29797 66.0691 14.2359 58.1847 22.0821C52.4165 27.8474 46.1022 31.1905 41.7334 31.1905H41.6992Z" fill="#080808"/>
</g>
<defs>
<clipPath id="clip0_0_89">
<rect width="67" height="67" fill="white" transform="translate(0.263672 0.317383)"/>
</clipPath>
</defs>
</svg>
