<svg width="55" height="69" viewBox="0 0 55 69" fill="none" xmlns="http://www.w3.org/2000/svg">
<g clip-path="url(#clip0_0_93)">
<path d="M27.5 53.1224C22.1211 53.1224 17.7396 48.8703 17.7396 43.6502C17.7396 43.097 18.2027 42.613 18.8083 42.613C19.4139 42.613 19.8769 43.0625 19.8769 43.6502C19.8769 47.7295 23.2966 51.0828 27.5356 51.0828C31.7746 51.0828 35.1943 47.764 35.1943 43.6502C35.1943 43.097 35.6574 42.613 36.263 42.613C36.8685 42.613 37.3316 43.0625 37.3316 43.6502C37.3316 48.8703 32.9501 53.1224 27.5712 53.1224H27.5Z" fill="#080808"/>
<path d="M27.5 38.361C22.1211 38.361 17.7396 34.1088 17.7396 28.8887C17.7396 28.3355 18.2027 27.8516 18.8083 27.8516C19.4139 27.8516 19.8769 28.301 19.8769 28.8887C19.8769 32.968 23.2966 36.3213 27.5356 36.3213C31.7746 36.3213 35.1943 33.0026 35.1943 28.8887C35.1943 28.3355 35.6574 27.8516 36.263 27.8516C36.8685 27.8516 37.3316 28.301 37.3316 28.8887C37.3316 34.1088 32.9501 38.361 27.5712 38.361H27.5Z" fill="#080808"/>
<path d="M27.5 68.8175C26.9301 68.8175 26.4313 68.3681 26.4313 67.7804V24.2908C26.4313 23.7376 26.8944 23.2537 27.5 23.2537C28.1056 23.2537 28.5687 23.7031 28.5687 24.2908V67.7804C28.5687 68.3335 28.1056 68.8175 27.5 68.8175Z" fill="#080808"/>
<path d="M33.7338 68.8174H21.2662C20.6962 68.8174 20.1975 68.368 20.1975 67.7803C20.1975 67.1926 20.6606 66.7432 21.2662 66.7432H33.7338C34.3038 66.7432 34.8025 67.1926 34.8025 67.7803C34.8025 68.368 34.3394 68.8174 33.7338 68.8174Z" fill="#080808"/>
<path d="M35.8355 60.8661C32.8789 60.8661 29.9935 60.071 27.5 58.5499C25.0065 60.071 22.1211 60.8661 19.1645 60.8661C10.4728 60.8661 3.38407 53.9866 3.38407 45.5514C3.38407 42.7166 4.20337 39.951 5.7351 37.5311C2.13731 35.0074 0 30.9973 0 26.6414C0 19.1742 6.3763 13.1244 14.035 13.1935C14.6049 6.24484 20.5894 0.782715 27.8562 0.782715C35.1231 0.782715 41.1431 6.27941 41.6775 13.1935C49.0868 13.4355 55.0356 19.3816 55.0356 26.6414C55.0356 30.9973 52.8983 34.9728 49.3005 37.5311C50.8323 39.951 51.6516 42.682 51.6516 45.5514C51.6516 53.9866 44.5628 60.8661 35.8711 60.8661H35.8355ZM27.5 56.3028C27.7137 56.3028 27.9275 56.3719 28.1056 56.4756C30.3854 57.9967 33.057 58.7919 35.8355 58.7919C43.3517 58.7919 49.5143 52.8457 49.5143 45.5168C49.5143 42.7512 48.6237 40.0893 46.9495 37.8076C46.7714 37.5656 46.7001 37.2891 46.7714 37.0125C46.8426 36.7359 47.0207 36.4939 47.2701 36.3557C50.7966 34.2814 52.8983 30.6515 52.8983 26.6414C52.8983 20.3496 47.6263 15.2677 41.1788 15.2677C41.1075 15.2677 41.0006 15.2677 40.9294 15.2677H40.6801C40.3951 15.2677 40.1101 15.1986 39.8964 14.9912C39.6826 14.7837 39.5758 14.5417 39.5758 14.2652C39.5758 7.97336 34.3038 2.85694 27.8562 2.85694C21.4087 2.85694 16.1367 7.97336 16.1367 14.2306C16.1367 14.5072 15.9942 14.8183 15.7804 15.0257C15.5667 15.2331 15.2817 15.3369 14.9611 15.3023C14.6049 15.3023 14.2487 15.2331 13.8569 15.2331C7.37371 15.2331 2.13731 20.3496 2.13731 26.6068C2.13731 30.5824 4.23899 34.2123 7.76554 36.3211C8.0149 36.4594 8.19301 36.7014 8.26425 36.9779C8.33549 37.2545 8.26425 37.5656 8.08614 37.7731C6.41192 40.0547 5.52137 42.7166 5.52137 45.4823C5.52137 52.8112 11.6483 58.7573 19.2001 58.7573C21.9786 58.7573 24.6503 57.9622 26.9301 56.4411C27.1082 56.3374 27.3219 56.2682 27.5356 56.2682L27.5 56.3028Z" fill="#080808"/>
</g>
<defs>
<clipPath id="clip0_0_93">
<rect width="55" height="68" fill="white" transform="translate(0 0.817383)"/>
</clipPath>
</defs>
</svg>
