<svg width="41" height="64" viewBox="0 0 41 64" fill="none" xmlns="http://www.w3.org/2000/svg">
<g clip-path="url(#clip0_0_99)">
<path d="M20.2624 33.9117C12.7355 33.9117 6.59179 27.7942 6.59179 20.2996C6.59179 12.8049 12.7033 6.71948 20.2624 6.71948C27.8214 6.71948 33.933 12.8369 33.933 20.3316C33.933 27.8262 27.7893 33.9437 20.2624 33.9437V33.9117ZM20.2624 8.60916C13.797 8.60916 8.52176 13.8618 8.52176 20.2996C8.52176 26.7373 13.797 31.9899 20.2624 31.9899C26.7278 31.9899 32.003 26.7373 32.003 20.2996C32.003 13.8618 26.7278 8.60916 20.2624 8.60916Z" fill="#080808"/>
<path d="M20.2302 63.5059C19.8121 63.5059 19.4261 63.2176 19.2974 62.8012L12.4782 38.5557C5.07998 35.4489 0.319397 28.3386 0.319397 20.2995C0.351563 9.37774 9.26157 0.505859 20.2302 0.505859C31.1989 0.505859 40.141 9.37774 40.141 20.2995C40.141 28.3386 35.3805 35.4489 27.9823 38.5557L21.1309 62.8012C21.0022 63.2176 20.6484 63.5059 20.1981 63.5059H20.2302ZM20.2302 2.42757C10.3231 2.42757 2.28153 10.4347 2.28153 20.2995C2.28153 27.698 6.75262 34.2318 13.6362 36.9543C13.7648 37.0183 13.8613 37.0824 13.9578 37.1785C14.0865 37.3066 14.183 37.4347 14.2152 37.5948L20.2302 59.0219L26.2774 37.5948C26.2774 37.5948 26.4061 37.3066 26.5348 37.1785C26.6313 37.0824 26.7599 37.0183 26.8564 36.9543C33.7721 34.2318 38.2111 27.698 38.2111 20.2995C38.2111 10.4347 30.1374 2.39554 20.2302 2.39554V2.42757Z" fill="#080808"/>
</g>
<defs>
<clipPath id="clip0_0_99">
<rect width="39.7895" height="63" fill="white" transform="translate(0.351562 0.505859)"/>
</clipPath>
</defs>
</svg>
