<svg width="68" height="68" viewBox="0 0 68 68" fill="none" xmlns="http://www.w3.org/2000/svg">
<g clip-path="url(#clip0_0_79)">
<path d="M62.1203 67.5059H5.40704C2.57989 67.5059 0.263672 65.1897 0.263672 62.3625V5.64923C0.263672 2.82208 2.57989 0.505859 5.40704 0.505859H15.9322C16.4772 0.505859 16.9541 0.948666 16.9541 1.52772V9.80479C16.9541 10.3498 16.5113 10.8267 15.9322 10.8267H10.5504V57.2191H56.9429V50.9517C56.9429 50.4067 57.3857 49.9299 57.9647 49.9299H66.2418C66.7868 49.9299 67.2637 50.3727 67.2637 50.9517V62.3966C67.2637 65.2237 64.9475 67.5399 62.1203 67.5399V67.5059ZM5.40704 2.54958C3.70394 2.54958 2.27333 3.94612 2.27333 5.68329V62.3966C2.27333 64.0997 3.66987 65.5303 5.40704 65.5303H62.1203C63.8234 65.5303 65.254 64.1337 65.254 62.3966V51.9736H59.0207V58.241C59.0207 58.786 58.5779 59.2629 57.9988 59.2629H9.5626C9.01761 59.2629 8.54074 58.8201 8.54074 58.241V9.80479C8.54074 9.2598 8.98355 8.78293 9.5626 8.78293H14.9444V2.54958H5.40704Z" fill="#080808"/>
<path d="M62.1203 51.9396C61.5753 51.9396 61.0984 51.4968 61.0984 50.9178V31.7409C61.0984 31.1959 61.5413 30.719 62.1203 30.719C62.6994 30.719 63.1422 31.1618 63.1422 31.7409V50.9178C63.1422 51.4628 62.6994 51.9396 62.1203 51.9396Z" fill="#080808"/>
<path d="M66.2418 32.7626H57.9648C57.4198 32.7626 56.9429 32.3198 56.9429 31.7407V10.7926H38.0044C37.4594 10.7926 36.9825 10.3498 36.9825 9.77073V1.52772C36.9825 0.982728 37.4254 0.505859 38.0044 0.505859H62.0863C64.9134 0.505859 67.2296 2.82208 67.2296 5.64922V31.7407C67.2296 32.2857 66.7868 32.7626 66.2078 32.7626H66.2418ZM58.9866 30.7189H65.22V5.64922C65.22 3.94612 63.8234 2.51552 62.0863 2.51552H39.0263V8.74887H57.9648C58.5097 8.74887 58.9866 9.19168 58.9866 9.77073V30.7189Z" fill="#080808"/>
<path d="M38.0385 6.67116H15.9322C15.3872 6.67116 14.9103 6.22836 14.9103 5.6493C14.9103 5.07025 15.3531 4.62744 15.9322 4.62744H38.0385C38.5834 4.62744 39.0603 5.07025 39.0603 5.6493C39.0603 6.22836 38.6175 6.67116 38.0385 6.67116Z" fill="#080808"/>
<path d="M41.3425 26.904H25.0608C24.5158 26.904 24.039 26.4611 24.039 25.8821C24.039 25.303 24.4818 24.8602 25.0608 24.8602H40.3206V9.80482C40.3206 9.25983 40.7634 8.78296 41.3425 8.78296C41.9215 8.78296 42.3643 9.22577 42.3643 9.80482V25.8821C42.3643 26.4271 41.9215 26.904 41.3425 26.904Z" fill="#080808"/>
<path d="M16.9881 26.9038H9.52854C8.98355 26.9038 8.50668 26.461 8.50668 25.882C8.50668 25.3029 8.94949 24.8601 9.52854 24.8601H16.9881C17.5331 24.8601 18.01 25.3029 18.01 25.882C18.01 26.461 17.5672 26.9038 16.9881 26.9038Z" fill="#080808"/>
<path d="M33.9851 59.2289C33.4401 59.2289 32.9632 58.7861 32.9632 58.207V35.0108H18.9637C18.4187 35.0108 17.9419 34.568 17.9419 33.9889C17.9419 33.4098 18.3847 32.967 18.9637 32.967H33.9851C34.5301 32.967 35.0069 33.4098 35.0069 33.9889V58.207C35.0069 58.752 34.5641 59.2289 33.9851 59.2289Z" fill="#080808"/>
<path d="M49.6877 43.356H34.0191C33.4742 43.356 32.9973 42.9132 32.9973 42.3341C32.9973 41.7551 33.4401 41.3123 34.0191 41.3123H49.6877C50.2327 41.3123 50.7095 41.7551 50.7095 42.3341C50.7095 42.9132 50.2667 43.356 49.6877 43.356Z" fill="#080808"/>
</g>
<defs>
<clipPath id="clip0_0_79">
<rect width="67" height="67" fill="white" transform="translate(0.263672 0.505859)"/>
</clipPath>
</defs>
</svg>
